<?xml version="1.0" encoding="UTF-8" standalone="no"?>
<!-- Created with Inkscape (http://www.inkscape.org/) -->

<svg
   width="120.74613mm"
   height="50.131371mm"
   viewBox="0 0 120.74613 50.131371"
   version="1.1"
   id="svg5"
   inkscape:version="1.1.1 (3bf5ae0d25, 2021-09-20)"
   sodipodi:docname="Logo 1-1 Whitetxt.svg"
   inkscape:export-filename="/home/matt/Nextcloud/03 - Client Data/Companies/Whisbro Environmental Services Ltd/Logo/Logo 1-1 96 Whitetxt.png"
   inkscape:export-xdpi="150"
   inkscape:export-ydpi="150"
   xmlns:inkscape="http://www.inkscape.org/namespaces/inkscape"
   xmlns:sodipodi="http://sodipodi.sourceforge.net/DTD/sodipodi-0.dtd"
   xmlns="http://www.w3.org/2000/svg"
   xmlns:svg="http://www.w3.org/2000/svg">
  <sodipodi:namedview
     id="namedview7"
     pagecolor="#ffffff"
     bordercolor="#666666"
     borderopacity="1.0"
     inkscape:pageshadow="2"
     inkscape:pageopacity="0.0"
     inkscape:pagecheckerboard="0"
     inkscape:document-units="mm"
     showgrid="false"
     inkscape:zoom="1.1474186"
     inkscape:cx="247.07635"
     inkscape:cy="150.33746"
     inkscape:window-width="1920"
     inkscape:window-height="1051"
     inkscape:window-x="0"
     inkscape:window-y="0"
     inkscape:window-maximized="1"
     inkscape:current-layer="layer1" />
  <defs
     id="defs2">
    <rect
       x="464.65909"
       y="149.75089"
       width="310.59442"
       height="106.61276"
       id="rect45467" />
    <rect
       x="362.55295"
       y="575.20416"
       width="587.40552"
       height="359.06686"
       id="rect9440" />
    <rect
       x="130.72823"
       y="542.08636"
       width="364.29599"
       height="287.60208"
       id="rect3130" />
    <rect
       x="130.72823"
       y="542.08636"
       width="364.29599"
       height="287.60208"
       id="rect6166" />
    <rect
       x="362.55295"
       y="575.20416"
       width="587.40552"
       height="359.06686"
       id="rect31963" />
  </defs>
  <g
     inkscape:label="Layer 1"
     inkscape:groupmode="layer"
     id="layer1"
     transform="translate(-84.319941,-4.4746889)">
    <path
       id="rect26511"
       style="fill:#00b050;fill-opacity:1;stroke-width:1.47779;stroke-linecap:round"
       d="M 321.2168,19.439453 V 203.33008 H 430.375 V 19.439453 Z m 27.11914,32.007813 h 7.94531 l 9.90625,28.394531 7.06836,-18.123047 -4.0625,-10.271484 h 6.71875 l 10.91211,27.548828 9.12695,-27.548828 h 7.30274 l -16.5918,44.167968 -10.0293,-25.357422 -11.29492,25.472657 z m -21.78125,61.847654 h 98.48242 v 86.0625 h -98.48242 z m 34.125,20.88867 v 44.28516 h 30.23242 v -6.81445 h -23.11523 v -15.98242 h 17.83007 v -6.875 h -17.83007 v -7.80079 h 22.26367 v -6.8125 z"
       transform="scale(0.26458333)"
       sodipodi:nodetypes="cccccccccccccccccccccccccccccccccccc" />
    <g
       id="g72300"
       transform="matrix(1.1826554,0,0,1.1826554,-29.232018,-2.3676508)"
       style="fill:#ffffff">
      <text
         xml:space="preserve"
         transform="matrix(0.34020731,0,0,0.34020731,-0.63293378,-185.64832)"
         id="text9438"
         style="font-style:normal;font-variant:normal;font-weight:normal;font-stretch:normal;font-size:40px;line-height:1.25;font-family:'Playfair Display';-inkscape-font-specification:'Playfair Display, @wght=700';font-variant-ligatures:normal;font-variant-caps:normal;font-variant-numeric:normal;font-variant-east-asian:normal;font-variation-settings:'wght' 700;letter-spacing:2.64422px;white-space:pre;shape-inside:url(#rect9440);fill:#ffffff;fill-opacity:1;stroke:none"><tspan
           x="362.55273"
           y="612.6732"
           id="tspan11705">WHISBRO</tspan></text>
      <g
         id="g72269"
         transform="matrix(0.86616815,0,0,0.86616815,23.976844,6.53473)"
         style="fill:#ffffff">
        <g
           aria-label="ENVIRONMENTAL "
           transform="matrix(0.21192152,0,0,0.21192152,43.613237,-96.602491)"
           id="text31961"
           style="font-size:40px;line-height:1.25;font-family:'Playfair Display';-inkscape-font-specification:'Playfair Display, Normal';white-space:pre;shape-inside:url(#rect31963);fill:#ffffff">
          <path
             d="m 383.98968,574.30035 q -0.21792,1.90686 -0.32688,3.70475 -0.0545,1.79787 -0.0545,2.72406 0,0.98066 0.0545,1.90685 0.0545,0.87171 0.10899,1.47099 h -1.25306 q -0.32689,-3.2144 -0.92618,-5.06676 -0.59931,-1.90685 -2.0703,-2.66959 -1.41651,-0.81722 -4.30402,-0.81722 h -4.52198 q -1.85235,0 -2.83302,0.32689 -0.92618,0.2724 -1.25308,1.25307 -0.32688,0.92618 -0.32688,2.942 v 27.02277 q 0,1.96133 0.32688,2.94199 0.3269,0.98067 1.25308,1.30757 0.98067,0.27239 2.83302,0.27239 h 3.97715 q 3.43234,0 5.17574,-0.92618 1.79789,-0.92618 2.56063,-2.99648 0.81721,-2.12477 1.19858,-5.72054 h 1.25308 q -0.16344,1.47099 -0.16344,3.92266 0,1.03514 0.0545,2.99648 0.10899,1.90685 0.32689,3.97714 -2.77856,-0.10899 -6.26536,-0.10899 -3.48681,-0.0545 -6.21089,-0.0545 -1.19858,0 -3.10543,0 -1.85237,0 -4.03163,0.0545 -2.17926,0 -4.413,0.0545 -2.23373,0 -4.24954,0.0545 v -1.08962 q 1.85237,-0.109 2.77855,-0.43587 0.98067,-0.32688 1.30755,-1.30755 0.32689,-0.98066 0.32689,-2.942 v -27.02264 q 0,-2.01582 -0.32689,-2.942 -0.32688,-0.98067 -1.30755,-1.30756 -0.92618,-0.38137 -2.77855,-0.43585 v -1.08963 q 2.01581,0.0545 4.24954,0.10899 2.23374,0 4.413,0.0545 2.17926,0 4.03163,0 1.90685,0 3.10543,0 2.50615,0 5.66608,0 3.2144,-0.0545 5.72053,-0.16344 z m -9.37079,18.63265 q 0,0 0,0.5448 0,0.54482 0,0.54482 h -9.97011 q 0,0 0,-0.54482 0,-0.5448 0,-0.5448 z m 1.57996,-7.19155 q -0.21793,3.10543 -0.21793,4.73989 0.0545,1.63443 0.0545,2.99646 0,1.36205 0.0545,2.99648 0.0545,1.63445 0.27242,4.73989 h -1.25309 q -0.21793,-1.74341 -0.54481,-3.37785 -0.27241,-1.68892 -1.30755,-2.72407 -0.98067,-1.08963 -3.37785,-1.08963 V 592.933 q 1.79788,0 2.72407,-0.70826 0.98066,-0.76273 1.41651,-1.90685 0.43587,-1.14411 0.59931,-2.34271 0.16344,-1.25306 0.32688,-2.23373 z"
             id="path71761"
             style="stroke-width:1.36203;fill:#ffffff" />
          <path
             d="m 413.7127,584.3532 v 0.8 q -1.36,0.04 -2.08,0.4 -0.68,0.36 -0.92,1.16 -0.24,0.8 -0.24,2.28 v 23.88 q -0.24,0 -0.48,0 -0.2,0 -0.44,0 l -16.8,-25.96 v 21.12 q 0,1.44 0.24,2.28 0.28,0.8 1.04,1.16 0.8,0.32 2.36,0.4 v 0.8 q -0.72,-0.08 -1.88,-0.08 -1.16,-0.04 -2.2,-0.04 -1,0 -2.04,0.04 -1,0 -1.68,0.08 v -0.8 q 1.36,-0.08 2.04,-0.4 0.72,-0.36 0.96,-1.16 0.24,-0.84 0.24,-2.28 v -19.44 q 0,-1.48 -0.24,-2.16 -0.24,-0.72 -0.96,-0.96 -0.68,-0.28 -2.04,-0.32 v -0.8 q 0.68,0.04 1.68,0.08 1.04,0.04 2.04,0.04 0.88,0 1.68,-0.04 0.8,-0.04 1.44,-0.08 l 14.12,21.76 v -17.12 q 0,-1.48 -0.28,-2.28 -0.24,-0.8 -1.04,-1.16 -0.76,-0.36 -2.32,-0.4 v -0.8 q 0.72,0.04 1.88,0.08 1.2,0.04 2.2,0.04 1.04,0 2.04,-0.04 1.04,-0.04 1.68,-0.08 z"
             id="path71763"
             style="fill:#ffffff" />
          <path
             d="m 440.63268,584.3532 v 0.8 q -0.76,0.16 -1.64,0.92 -0.84,0.76 -1.52,2.56 l -9.4,24.24 q -0.08,0 -0.16,0 -0.08,0 -0.16,0 -0.08,0 -0.16,0 -0.08,0 -0.16,0 l -9.76,-25.16 q -0.6,-1.52 -1.36,-2 -0.76,-0.52 -1.4,-0.56 v -0.8 q 0.8,0.04 1.96,0.08 1.2,0.04 2.32,0.04 1.56,0 2.92,-0.04 1.36,-0.04 2.2,-0.08 v 0.8 q -1.36,0.04 -2.08,0.32 -0.68,0.28 -0.76,1 -0.04,0.68 0.48,2.04 l 7.44,19.72 -0.64,0.68 6.96,-18.08 q 0.84,-2.16 0.8,-3.36 -0.04,-1.24 -0.92,-1.76 -0.88,-0.52 -2.56,-0.56 v -0.8 q 1.16,0.04 2.36,0.08 1.2,0.04 2.24,0.04 1.04,0 1.72,-0.04 0.68,-0.04 1.28,-0.08 z"
             id="path71765"
             style="fill:#ffffff" />
          <path
             d="m 452.23265,584.3532 v 0.8 q -1.36,0.04 -2.08,0.32 -0.68,0.24 -0.92,0.96 -0.24,0.68 -0.24,2.16 v 19.84 q 0,1.44 0.24,2.16 0.24,0.72 0.92,0.96 0.72,0.24 2.08,0.32 v 0.8 q -0.92,-0.08 -2.32,-0.08 -1.36,-0.04 -2.76,-0.04 -1.56,0 -2.92,0.04 -1.36,0 -2.2,0.08 v -0.8 q 1.36,-0.08 2.04,-0.32 0.72,-0.24 0.96,-0.96 0.24,-0.72 0.24,-2.16 v -19.84 q 0,-1.48 -0.24,-2.16 -0.24,-0.72 -0.96,-0.96 -0.68,-0.28 -2.04,-0.32 v -0.8 q 0.84,0.04 2.2,0.08 1.36,0.04 2.92,0.04 1.4,0 2.76,-0.04 1.4,-0.04 2.32,-0.08 z"
             id="path71767"
             style="fill:#ffffff" />
          <path
             d="m 455.5926,584.3532 q 0.84,0.04 2.2,0.08 1.36,0.04 2.68,0.04 1.88,0 3.6,-0.04 1.72,-0.04 2.44,-0.04 3.24,0 5.36,0.92 2.16,0.92 3.2,2.52 1.08,1.56 1.08,3.52 0,1.2 -0.48,2.56 -0.48,1.36 -1.68,2.56 -1.16,1.2 -3.2,2 -2.04,0.76 -5.16,0.76 h -3.84 v -0.8 h 3.44 q 2.84,0 4.32,-0.88 1.52,-0.92 2.04,-2.4 0.56,-1.52 0.56,-3.36 0,-3.16 -1.52,-4.88 -1.48,-1.76 -5.12,-1.76 -1.84,0 -2.4,0.68 -0.56,0.68 -0.56,2.76 v 19.84 q 0,1.44 0.24,2.16 0.24,0.72 0.92,0.96 0.72,0.24 2.08,0.32 v 0.8 q -0.92,-0.08 -2.32,-0.08 -1.36,-0.04 -2.76,-0.04 -1.56,0 -2.92,0.04 -1.36,0 -2.2,0.08 v -0.8 q 1.36,-0.08 2.04,-0.32 0.72,-0.24 0.96,-0.96 0.24,-0.72 0.24,-2.16 v -19.84 q 0,-1.48 -0.24,-2.16 -0.24,-0.72 -0.96,-0.96 -0.68,-0.28 -2.04,-0.32 z m 6.36,14.2 q 2.16,0.08 3.4,0.2 1.24,0.08 2,0.16 0.8,0.08 1.52,0.2 2.68,0.44 3.84,1.64 1.2,1.16 1.76,3.64 l 1,4.08 q 0.4,1.76 0.8,2.56 0.44,0.76 1.32,0.72 0.68,-0.04 1.12,-0.44 0.48,-0.4 1,-1.08 l 0.6,0.44 q -0.84,1.24 -1.76,1.92 -0.88,0.64 -2.52,0.64 -1.48,0 -2.6,-0.88 -1.12,-0.88 -1.68,-3.44 l -0.88,-4 q -0.36,-1.72 -0.84,-2.96 -0.44,-1.28 -1.28,-2 -0.8,-0.72 -2.4,-0.72 h -4.32 z"
             id="path71769"
             style="fill:#ffffff" />
          <path
             d="m 494.67255,583.7932 q 3.8,0 6.64,1.72 2.88,1.72 4.44,4.96 1.6,3.2 1.6,7.8 0,4.48 -1.64,7.84 -1.6,3.36 -4.48,5.24 -2.88,1.88 -6.6,1.88 -3.8,0 -6.68,-1.72 -2.84,-1.72 -4.44,-4.96 -1.56,-3.24 -1.56,-7.8 0,-4.48 1.64,-7.84 1.64,-3.36 4.48,-5.24 2.88,-1.88 6.6,-1.88 z m -0.16,0.72 q -2.6,0 -4.52,1.8 -1.92,1.8 -3,4.96 -1.04,3.16 -1.04,7.32 0,4.24 1.16,7.4 1.2,3.12 3.2,4.84 2.04,1.68 4.48,1.68 2.6,0 4.52,-1.8 1.92,-1.8 2.96,-4.96 1.08,-3.2 1.08,-7.32 0,-4.28 -1.2,-7.4 -1.16,-3.12 -3.16,-4.8 -2,-1.72 -4.48,-1.72 z"
             id="path71771"
             style="fill:#ffffff" />
          <path
             d="m 535.95247,584.3532 v 0.8 q -1.36,0.04 -2.08,0.4 -0.68,0.36 -0.92,1.16 -0.24,0.8 -0.24,2.28 v 23.88 q -0.24,0 -0.48,0 -0.2,0 -0.44,0 l -16.8,-25.96 v 21.12 q 0,1.44 0.24,2.28 0.28,0.8 1.04,1.16 0.8,0.32 2.36,0.4 v 0.8 q -0.72,-0.08 -1.88,-0.08 -1.16,-0.04 -2.2,-0.04 -1,0 -2.04,0.04 -1,0 -1.68,0.08 v -0.8 q 1.36,-0.08 2.04,-0.4 0.72,-0.36 0.96,-1.16 0.24,-0.84 0.24,-2.28 v -19.44 q 0,-1.48 -0.24,-2.16 -0.24,-0.72 -0.96,-0.96 -0.68,-0.28 -2.04,-0.32 v -0.8 q 0.68,0.04 1.68,0.08 1.04,0.04 2.04,0.04 0.88,0 1.68,-0.04 0.8,-0.04 1.44,-0.08 l 14.12,21.76 v -17.12 q 0,-1.48 -0.28,-2.28 -0.24,-0.8 -1.04,-1.16 -0.76,-0.36 -2.32,-0.4 v -0.8 q 0.72,0.04 1.88,0.08 1.2,0.04 2.2,0.04 1.04,0 2.04,-0.04 1.04,-0.04 1.68,-0.08 z"
             id="path71773"
             style="fill:#ffffff" />
          <path
             d="m 570.55244,584.3532 v 0.8 q -1.36,0.04 -2.08,0.32 -0.68,0.24 -0.92,0.96 -0.24,0.68 -0.24,2.16 v 19.84 q 0,1.44 0.24,2.16 0.24,0.72 0.92,0.96 0.72,0.24 2.08,0.32 v 0.8 q -0.92,-0.08 -2.32,-0.08 -1.36,-0.04 -2.76,-0.04 -1.56,0 -2.92,0.04 -1.36,0 -2.2,0.08 v -0.8 q 1.36,-0.08 2.04,-0.32 0.72,-0.24 0.96,-0.96 0.24,-0.72 0.24,-2.16 v -22 l 0.16,0.12 -9.8,26.32 h -0.64 l -10.08,-25.96 v 21.12 q 0,1.44 0.24,2.28 0.28,0.8 1.04,1.16 0.8,0.32 2.36,0.4 v 0.8 q -0.72,-0.08 -1.88,-0.08 -1.16,-0.04 -2.2,-0.04 -1,0 -2.04,0.04 -1,0 -1.68,0.08 v -0.8 q 1.36,-0.08 2.04,-0.4 0.72,-0.36 0.96,-1.16 0.24,-0.84 0.24,-2.28 v -19.44 q 0,-1.48 -0.24,-2.16 -0.24,-0.72 -0.96,-0.96 -0.68,-0.28 -2.04,-0.32 v -0.8 q 0.68,0.04 1.68,0.08 1.04,0.04 2.04,0.04 0.88,0 1.8,-0.04 0.96,-0.04 1.6,-0.08 l 9.08,23.92 -0.68,0.32 9,-24.12 q 0.48,0 0.92,0 0.48,0 0.96,0 1.4,0 2.76,-0.04 1.4,-0.04 2.32,-0.08 z"
             id="path71775"
             style="fill:#ffffff" />
          <path
             d="m 593.87238,584.3532 q -0.16,1.4 -0.24,2.72 -0.04,1.32 -0.04,2 0,0.72 0.04,1.4 0.04,0.64 0.08,1.08 h -0.92 q -0.24,-2.36 -0.68,-3.72 -0.44,-1.4 -1.52,-1.96 -1.04,-0.6 -3.16,-0.6 h -3.32 q -1.36,0 -2.08,0.24 -0.68,0.2 -0.92,0.92 -0.24,0.68 -0.24,2.16 v 19.84 q 0,1.44 0.24,2.16 0.24,0.72 0.92,0.96 0.72,0.2 2.08,0.2 h 2.92 q 2.52,0 3.8,-0.68 1.32,-0.68 1.88,-2.2 0.6,-1.56 0.88,-4.2 h 0.92 q -0.12,1.08 -0.12,2.88 0,0.76 0.04,2.2 0.08,1.4 0.24,2.92 -2.04,-0.08 -4.6,-0.08 -2.56,-0.04 -4.56,-0.04 -0.88,0 -2.28,0 -1.36,0 -2.96,0.04 -1.6,0 -3.24,0.04 -1.64,0 -3.12,0.04 v -0.8 q 1.36,-0.08 2.04,-0.32 0.72,-0.24 0.96,-0.96 0.24,-0.72 0.24,-2.16 v -19.84 q 0,-1.48 -0.24,-2.16 -0.24,-0.72 -0.96,-0.96 -0.68,-0.28 -2.04,-0.32 v -0.8 q 1.48,0.04 3.12,0.08 1.64,0 3.24,0.04 1.6,0 2.96,0 1.4,0 2.28,0 1.84,0 4.16,0 2.36,-0.04 4.2,-0.12 z m -6.88,13.68 q 0,0 0,0.4 0,0.4 0,0.4 h -7.32 q 0,0 0,-0.4 0,-0.4 0,-0.4 z m 1.16,-5.28 q -0.16,2.28 -0.16,3.48 0.04,1.2 0.04,2.2 0,1 0.04,2.2 0.04,1.2 0.2,3.48 h -0.92 q -0.16,-1.28 -0.4,-2.48 -0.2,-1.24 -0.96,-2 -0.72,-0.8 -2.48,-0.8 v -0.8 q 1.32,0 2,-0.52 0.72,-0.56 1.04,-1.4 0.32,-0.84 0.44,-1.72 0.12,-0.92 0.24,-1.64 z"
             id="path71777"
             style="fill:#ffffff" />
          <path
             d="m 623.39235,584.3532 v 0.8 q -1.36,0.04 -2.08,0.4 -0.68,0.36 -0.92,1.16 -0.24,0.8 -0.24,2.28 v 23.88 q -0.24,0 -0.48,0 -0.2,0 -0.44,0 l -16.8,-25.96 v 21.12 q 0,1.44 0.24,2.28 0.28,0.8 1.04,1.16 0.8,0.32 2.36,0.4 v 0.8 q -0.72,-0.08 -1.88,-0.08 -1.16,-0.04 -2.2,-0.04 -1,0 -2.04,0.04 -1,0 -1.68,0.08 v -0.8 q 1.36,-0.08 2.04,-0.4 0.72,-0.36 0.96,-1.16 0.24,-0.84 0.24,-2.28 v -19.44 q 0,-1.48 -0.24,-2.16 -0.24,-0.72 -0.96,-0.96 -0.68,-0.28 -2.04,-0.32 v -0.8 q 0.68,0.04 1.68,0.08 1.04,0.04 2.04,0.04 0.88,0 1.68,-0.04 0.8,-0.04 1.44,-0.08 l 14.12,21.76 v -17.12 q 0,-1.48 -0.28,-2.28 -0.24,-0.8 -1.04,-1.16 -0.76,-0.36 -2.32,-0.4 v -0.8 q 0.72,0.04 1.88,0.08 1.2,0.04 2.2,0.04 1.04,0 2.04,-0.04 1.04,-0.04 1.68,-0.08 z"
             id="path71779"
             style="fill:#ffffff" />
          <path
             d="m 648.51234,584.3532 q -0.16,1.52 -0.24,2.96 -0.04,1.4 -0.04,2.16 0,0.96 0.04,1.8 0.04,0.84 0.08,1.48 h -0.92 q -0.28,-2.8 -0.76,-4.4 -0.48,-1.64 -1.68,-2.36 -1.2,-0.72 -3.72,-0.72 h -2.16 v 22.76 q 0,1.6 0.28,2.4 0.32,0.8 1.2,1.08 0.88,0.28 2.56,0.36 v 0.8 q -1.04,-0.08 -2.64,-0.08 -1.6,-0.04 -3.24,-0.04 -1.8,0 -3.4,0.04 -1.56,0 -2.52,0.08 v -0.8 q 1.68,-0.08 2.56,-0.36 0.88,-0.28 1.16,-1.08 0.32,-0.8 0.32,-2.4 v -22.76 h -2.16 q -2.48,0 -3.72,0.72 -1.2,0.72 -1.68,2.36 -0.48,1.6 -0.76,4.4 h -0.92 q 0.08,-0.64 0.08,-1.48 0.04,-0.84 0.04,-1.8 0,-0.76 -0.08,-2.16 -0.04,-1.44 -0.2,-2.96 1.68,0.04 3.64,0.08 2,0.04 4,0.04 2,0 3.64,0 1.64,0 3.6,0 2,0 4,-0.04 2,-0.04 3.64,-0.08 z"
             id="path71781"
             style="fill:#ffffff" />
          <path
             d="m 660.71224,584.1532 9.76,25.16 q 0.6,1.52 1.36,2.04 0.76,0.48 1.4,0.52 v 0.8 q -0.8,-0.08 -1.96,-0.08 -1.16,-0.04 -2.32,-0.04 -1.56,0 -2.92,0.04 -1.36,0 -2.2,0.08 v -0.8 q 2.04,-0.08 2.6,-0.68 0.56,-0.64 -0.24,-2.68 l -7.44,-19.88 0.64,-0.52 -6.96,18.08 q -0.64,1.6 -0.76,2.72 -0.12,1.08 0.2,1.72 0.36,0.64 1.16,0.92 0.84,0.28 2.08,0.32 v 0.8 q -1.12,-0.08 -2.36,-0.08 -1.2,-0.04 -2.24,-0.04 -1,0 -1.72,0.04 -0.68,0 -1.28,0.08 v -0.8 q 0.8,-0.2 1.64,-0.92 0.84,-0.76 1.52,-2.56 l 9.4,-24.24 q 0.16,0 0.32,0 0.16,0 0.32,0 z m 4.88,17 v 0.8 h -11.92 l 0.4,-0.8 z"
             id="path71783"
             style="fill:#ffffff" />
          <path
             d="m 684.07217,584.3532 v 0.8 q -1.36,0.04 -2.08,0.32 -0.68,0.24 -0.92,0.96 -0.24,0.68 -0.24,2.16 v 19.84 q 0,1.44 0.24,2.16 0.24,0.72 0.92,0.96 0.72,0.2 2.08,0.2 h 2.92 q 1.88,0 3.04,-0.4 1.2,-0.4 1.88,-1.24 0.72,-0.88 1.08,-2.32 0.36,-1.44 0.56,-3.52 h 0.92 q -0.12,1.24 -0.12,3.28 0,0.76 0.04,2.2 0.08,1.4 0.24,2.92 -2.04,-0.08 -4.6,-0.08 -2.56,-0.04 -4.56,-0.04 -0.88,0 -2.28,0 -1.36,0 -2.96,0.04 -1.6,0 -3.24,0.04 -1.64,0 -3.12,0.04 v -0.8 q 1.36,-0.08 2.04,-0.32 0.72,-0.24 0.96,-0.96 0.24,-0.72 0.24,-2.16 v -19.84 q 0,-1.48 -0.24,-2.16 -0.24,-0.72 -0.96,-0.96 -0.68,-0.28 -2.04,-0.32 v -0.8 q 0.84,0.04 2.2,0.08 1.36,0.04 2.92,0.04 1.4,0 2.76,-0.04 1.4,-0.04 2.32,-0.08 z"
             id="path71785"
             style="fill:#ffffff" />
        </g>
        <g
           aria-label="SERVICES LTD"
           transform="matrix(0.21192608,0,0,0.21192608,27.209156,3.9322571)"
           id="text45465"
           style="font-size:40px;line-height:1.25;font-family:'Playfair Display';-inkscape-font-specification:'Playfair Display, Normal';letter-spacing:1.26px;white-space:pre;shape-inside:url(#rect45467);fill:#ffffff">
          <path
             d="m 472.66056,149.20807 q 2.63096,0 3.99907,0.63143 1.3681,0.57881 2.4205,1.31549 0.63143,0.36833 0.99976,0.57881 0.42096,0.15786 0.7893,0.15786 0.52619,0 0.73667,-0.57882 0.26309,-0.57881 0.42096,-1.73643 h 1.21024 q -0.0526,0.89453 -0.15785,2.15739 -0.0526,1.21024 -0.1053,3.2624 0,1.99954 0,5.31457 h -1.21024 q -0.15786,-2.52573 -1.10501,-4.841 -0.94715,-2.31525 -2.78883,-3.78859 -1.78906,-1.47335 -4.73575,-1.47335 -2.78883,0 -4.63052,1.68383 -1.78905,1.68382 -1.78905,4.42003 0,2.36788 1.21025,3.99908 1.21024,1.57858 3.20978,2.89407 2.05216,1.26286 4.42004,2.73621 2.73621,1.68382 4.84098,3.36765 2.15741,1.6312 3.36765,3.63074 1.26286,1.99954 1.26286,4.84099 0,3.36764 -1.52595,5.57766 -1.52597,2.21001 -4.0517,3.31502 -2.52574,1.10501 -5.57767,1.10501 -2.78883,0 -4.42003,-0.63144 -1.63121,-0.63142 -2.78884,-1.31547 -1.15762,-0.73668 -1.78906,-0.73668 -0.52619,0 -0.78929,0.57881 -0.21047,0.57881 -0.36834,1.73645 h -1.21024 q 0.10529,-1.10501 0.10529,-2.57836 0.0526,-1.52597 0.0526,-3.94645 0.0526,-2.4205 0.0526,-6.10386 h 1.21024 q 0.21048,3.15717 1.15763,5.89338 0.99978,2.73621 2.99932,4.42003 2.05214,1.63121 5.41979,1.63121 1.73645,0 3.26241,-0.68407 1.57859,-0.73667 2.57835,-2.26262 0.99978,-1.57859 0.99978,-4.0517 0,-2.1574 -1.0524,-3.73599 -0.99976,-1.6312 -2.84145,-2.9993 -1.84168,-1.42073 -4.31479,-2.89407 -2.47312,-1.52597 -4.63051,-3.10456 -2.1574,-1.57858 -3.47288,-3.63074 -1.26287,-2.10477 -1.26287,-5.05146 0,-3.10455 1.3681,-5.10408 1.42072,-2.05216 3.68336,-2.99932 2.26264,-0.99976 4.841,-0.99976 z"
             id="path71806"
             style="stroke-width:1.31549;fill:#ffffff" />
          <path
             d="m 509.15816,158.89812 q -0.16,1.4 -0.24,2.72 -0.04,1.32 -0.04,2 0,0.72 0.04,1.4 0.04,0.64 0.08,1.08 h -0.92 q -0.24,-2.36 -0.68,-3.72 -0.44,-1.4 -1.52,-1.96 -1.04,-0.6 -3.16,-0.6 h -3.32 q -1.36,0 -2.08,0.24 -0.68,0.2 -0.92,0.92 -0.24,0.68 -0.24,2.16 v 19.84 q 0,1.44 0.24,2.16 0.24,0.72 0.92,0.96 0.72,0.2 2.08,0.2 h 2.92 q 2.52,0 3.8,-0.68 1.32,-0.68 1.88,-2.2 0.6,-1.56 0.88,-4.2 h 0.92 q -0.12,1.08 -0.12,2.88 0,0.76 0.04,2.2 0.08,1.4 0.24,2.92 -2.04,-0.08 -4.6,-0.08 -2.56,-0.04 -4.56,-0.04 -0.88,0 -2.28,0 -1.36,0 -2.96,0.04 -1.6,0 -3.24,0.04 -1.64,0 -3.12,0.04 v -0.8 q 1.36,-0.08 2.04,-0.32 0.72,-0.24 0.96,-0.96 0.24,-0.72 0.24,-2.16 v -19.84 q 0,-1.48 -0.24,-2.16 -0.24,-0.72 -0.96,-0.96 -0.68,-0.28 -2.04,-0.32 v -0.8 q 1.48,0.04 3.12,0.08 1.64,0 3.24,0.04 1.6,0 2.96,0 1.4,0 2.28,0 1.84,0 4.16,0 2.36,-0.04 4.2,-0.12 z m -6.88,13.68 q 0,0 0,0.4 0,0.4 0,0.4 h -7.32 q 0,0 0,-0.4 0,-0.4 0,-0.4 z m 1.16,-5.28 q -0.16,2.28 -0.16,3.48 0.04,1.2 0.04,2.2 0,1 0.04,2.2 0.04,1.2 0.2,3.48 h -0.92 q -0.16,-1.28 -0.4,-2.48 -0.2,-1.24 -0.96,-2 -0.72,-0.8 -2.48,-0.8 v -0.8 q 1.32,0 2,-0.52 0.72,-0.56 1.04,-1.4 0.32,-0.84 0.44,-1.72 0.12,-0.92 0.24,-1.64 z"
             id="path71808"
             style="fill:#ffffff" />
          <path
             d="m 514.81813,158.89812 q 0.84,0.04 2.2,0.08 1.36,0.04 2.68,0.04 1.88,0 3.6,-0.04 1.72,-0.04 2.44,-0.04 3.24,0 5.36,0.92 2.16,0.92 3.2,2.52 1.08,1.56 1.08,3.52 0,1.2 -0.48,2.56 -0.48,1.36 -1.68,2.56 -1.16,1.2 -3.2,2 -2.04,0.76 -5.16,0.76 h -3.84 v -0.8 h 3.44 q 2.84,0 4.32,-0.88 1.52,-0.92 2.04,-2.4 0.56,-1.52 0.56,-3.36 0,-3.16 -1.52,-4.88 -1.48,-1.76 -5.12,-1.76 -1.84,0 -2.4,0.68 -0.56,0.68 -0.56,2.76 v 19.84 q 0,1.44 0.24,2.16 0.24,0.72 0.92,0.96 0.72,0.24 2.08,0.32 v 0.8 q -0.92,-0.08 -2.32,-0.08 -1.36,-0.04 -2.76,-0.04 -1.56,0 -2.92,0.04 -1.36,0 -2.2,0.08 v -0.8 q 1.36,-0.08 2.04,-0.32 0.72,-0.24 0.96,-0.96 0.24,-0.72 0.24,-2.16 v -19.84 q 0,-1.48 -0.24,-2.16 -0.24,-0.72 -0.96,-0.96 -0.68,-0.28 -2.04,-0.32 z m 6.36,14.2 q 2.16,0.08 3.4,0.2 1.24,0.08 2,0.16 0.8,0.08 1.52,0.2 2.68,0.44 3.84,1.64 1.2,1.16 1.76,3.64 l 1,4.08 q 0.4,1.76 0.8,2.56 0.44,0.76 1.32,0.72 0.68,-0.04 1.12,-0.44 0.48,-0.4 1,-1.08 l 0.6,0.44 q -0.84,1.24 -1.76,1.92 -0.88,0.64 -2.52,0.64 -1.48,0 -2.6,-0.88 -1.12,-0.88 -1.68,-3.44 l -0.88,-4 q -0.36,-1.72 -0.84,-2.96 -0.44,-1.28 -1.28,-2 -0.8,-0.72 -2.4,-0.72 h -4.32 z"
             id="path71810"
             style="fill:#ffffff" />
          <path
             d="m 564.95801,158.89812 v 0.8 q -0.76,0.16 -1.64,0.92 -0.84,0.76 -1.52,2.56 l -9.4,24.24 q -0.08,0 -0.16,0 -0.08,0 -0.16,0 -0.08,0 -0.16,0 -0.08,0 -0.16,0 l -9.76,-25.16 q -0.6,-1.52 -1.36,-2 -0.76,-0.52 -1.4,-0.56 v -0.8 q 0.8,0.04 1.96,0.08 1.2,0.04 2.32,0.04 1.56,0 2.92,-0.04 1.36,-0.04 2.2,-0.08 v 0.8 q -1.36,0.04 -2.08,0.32 -0.68,0.28 -0.76,1 -0.04,0.68 0.48,2.04 l 7.44,19.72 -0.64,0.68 6.96,-18.08 q 0.84,-2.16 0.8,-3.36 -0.04,-1.24 -0.92,-1.76 -0.88,-0.52 -2.56,-0.56 v -0.8 q 1.16,0.04 2.36,0.08 1.2,0.04 2.24,0.04 1.04,0 1.72,-0.04 0.68,-0.04 1.28,-0.08 z"
             id="path71812"
             style="fill:#ffffff" />
          <path
             d="m 577.81798,158.89812 v 0.8 q -1.36,0.04 -2.08,0.32 -0.68,0.24 -0.92,0.96 -0.24,0.68 -0.24,2.16 v 19.84 q 0,1.44 0.24,2.16 0.24,0.72 0.92,0.96 0.72,0.24 2.08,0.32 v 0.8 q -0.92,-0.08 -2.32,-0.08 -1.36,-0.04 -2.76,-0.04 -1.56,0 -2.92,0.04 -1.36,0 -2.2,0.08 v -0.8 q 1.36,-0.08 2.04,-0.32 0.72,-0.24 0.96,-0.96 0.24,-0.72 0.24,-2.16 v -19.84 q 0,-1.48 -0.24,-2.16 -0.24,-0.72 -0.96,-0.96 -0.68,-0.28 -2.04,-0.32 v -0.8 q 0.84,0.04 2.2,0.08 1.36,0.04 2.92,0.04 1.4,0 2.76,-0.04 1.4,-0.04 2.32,-0.08 z"
             id="path71814"
             style="fill:#ffffff" />
          <path
             d="m 595.27788,158.33812 q 2.64,0 4.32,0.8 1.72,0.76 3.04,1.8 0.8,0.6 1.2,0.16 0.44,-0.48 0.6,-2.2 h 0.92 q -0.08,1.48 -0.12,3.6 -0.04,2.12 -0.04,5.6 h -0.92 q -0.28,-1.72 -0.52,-2.72 -0.24,-1.04 -0.6,-1.76 -0.32,-0.72 -0.88,-1.44 -1.24,-1.64 -3.12,-2.36 -1.88,-0.76 -3.96,-0.76 -1.96,0 -3.56,1 -1.56,0.96 -2.72,2.8 -1.12,1.84 -1.76,4.44 -0.6,2.6 -0.6,5.84 0,3.36 0.68,5.96 0.68,2.56 1.88,4.32 1.24,1.76 2.88,2.68 1.68,0.88 3.6,0.88 1.8,0 3.76,-0.72 1.96,-0.72 3.08,-2.32 0.88,-1.16 1.2,-2.52 0.36,-1.36 0.64,-3.8 h 0.92 q 0,3.64 0.04,5.88 0.04,2.2 0.12,3.72 h -0.92 q -0.16,-1.72 -0.56,-2.16 -0.36,-0.44 -1.24,0.12 -1.48,1.04 -3.16,1.84 -1.64,0.76 -4.24,0.76 -3.8,0 -6.68,-1.72 -2.84,-1.72 -4.44,-4.96 -1.56,-3.24 -1.56,-7.8 0,-4.48 1.64,-7.84 1.64,-3.36 4.48,-5.24 2.88,-1.88 6.6,-1.88 z"
             id="path71816"
             style="fill:#ffffff" />
          <path
             d="m 630.85786,158.89812 q -0.16,1.4 -0.24,2.72 -0.04,1.32 -0.04,2 0,0.72 0.04,1.4 0.04,0.64 0.08,1.08 h -0.92 q -0.24,-2.36 -0.68,-3.72 -0.44,-1.4 -1.52,-1.96 -1.04,-0.6 -3.16,-0.6 h -3.32 q -1.36,0 -2.08,0.24 -0.68,0.2 -0.92,0.92 -0.24,0.68 -0.24,2.16 v 19.84 q 0,1.44 0.24,2.16 0.24,0.72 0.92,0.96 0.72,0.2 2.08,0.2 h 2.92 q 2.52,0 3.8,-0.68 1.32,-0.68 1.88,-2.2 0.6,-1.56 0.88,-4.2 h 0.92 q -0.12,1.08 -0.12,2.88 0,0.76 0.04,2.2 0.08,1.4 0.24,2.92 -2.04,-0.08 -4.6,-0.08 -2.56,-0.04 -4.56,-0.04 -0.88,0 -2.28,0 -1.36,0 -2.96,0.04 -1.6,0 -3.24,0.04 -1.64,0 -3.12,0.04 v -0.8 q 1.36,-0.08 2.04,-0.32 0.72,-0.24 0.96,-0.96 0.24,-0.72 0.24,-2.16 v -19.84 q 0,-1.48 -0.24,-2.16 -0.24,-0.72 -0.96,-0.96 -0.68,-0.28 -2.04,-0.32 v -0.8 q 1.48,0.04 3.12,0.08 1.64,0 3.24,0.04 1.6,0 2.96,0 1.4,0 2.28,0 1.84,0 4.16,0 2.36,-0.04 4.2,-0.12 z m -6.88,13.68 q 0,0 0,0.4 0,0.4 0,0.4 h -7.32 q 0,0 0,-0.4 0,-0.4 0,-0.4 z m 1.16,-5.28 q -0.16,2.28 -0.16,3.48 0.04,1.2 0.04,2.2 0,1 0.04,2.2 0.04,1.2 0.2,3.48 h -0.92 q -0.16,-1.28 -0.4,-2.48 -0.2,-1.24 -0.96,-2 -0.72,-0.8 -2.48,-0.8 v -0.8 q 1.32,0 2,-0.52 0.72,-0.56 1.04,-1.4 0.32,-0.84 0.44,-1.72 0.12,-0.92 0.24,-1.64 z"
             id="path71818"
             style="fill:#ffffff" />
          <path
             d="m 645.07784,158.45812 q 2,0 3.04,0.48 1.04,0.44 1.84,1 0.48,0.28 0.76,0.44 0.32,0.12 0.6,0.12 0.4,0 0.56,-0.44 0.2,-0.44 0.32,-1.32 h 0.92 q -0.04,0.68 -0.12,1.64 -0.04,0.92 -0.08,2.48 0,1.52 0,4.04 h -0.92 q -0.12,-1.92 -0.84,-3.68 -0.72,-1.76 -2.12,-2.88 -1.36,-1.12 -3.6,-1.12 -2.12,0 -3.52,1.28 -1.36,1.28 -1.36,3.36 0,1.8 0.92,3.04 0.92,1.2 2.44,2.2 1.56,0.96 3.36,2.08 2.08,1.28 3.68,2.56 1.64,1.24 2.56,2.76 0.96,1.52 0.96,3.68 0,2.56 -1.16,4.24 -1.16,1.68 -3.08,2.52 -1.92,0.84 -4.24,0.84 -2.12,0 -3.36,-0.48 -1.24,-0.48 -2.12,-1 -0.88,-0.56 -1.36,-0.56 -0.4,0 -0.6,0.44 -0.16,0.44 -0.28,1.32 h -0.92 q 0.08,-0.84 0.08,-1.96 0.04,-1.16 0.04,-3 0.04,-1.84 0.04,-4.64 h 0.92 q 0.16,2.4 0.88,4.48 0.76,2.08 2.28,3.36 1.56,1.24 4.12,1.24 1.32,0 2.48,-0.52 1.2,-0.56 1.96,-1.72 0.76,-1.2 0.76,-3.08 0,-1.64 -0.8,-2.84 -0.76,-1.24 -2.16,-2.28 -1.4,-1.08 -3.28,-2.2 -1.88,-1.16 -3.52,-2.36 -1.64,-1.2 -2.64,-2.76 -0.96,-1.6 -0.96,-3.84 0,-2.36 1.04,-3.88 1.08,-1.56 2.8,-2.28 1.72,-0.76 3.68,-0.76 z"
             id="path71820"
             style="fill:#ffffff" />
          <path
             d="m 679.79866,148.64805 v 1.08956 q -1.85223,0.0545 -2.83283,0.43581 -0.92611,0.32687 -1.25298,1.30745 -0.32687,0.92612 -0.32687,2.94178 v 27.02074 q 0,1.96118 0.32687,2.94178 0.32687,0.98059 1.25298,1.30746 0.9806,0.27239 2.83283,0.27239 h 3.97684 q 2.56042,0 4.14027,-0.54479 1.63431,-0.54477 2.56044,-1.6888 0.98058,-1.19848 1.47089,-3.15967 0.49029,-1.96119 0.76268,-4.79401 h 1.25297 q -0.16343,1.6888 -0.16343,4.46714 0,1.03507 0.0544,2.99625 0.10886,1.90671 0.32687,3.97684 -2.77835,-0.10886 -6.2649,-0.10886 -3.48655,-0.0544 -6.2104,-0.0544 -1.19851,0 -3.10522,0 -1.85222,0 -4.03132,0.0544 -2.17908,0 -4.41266,0.0545 -2.23358,0 -4.24923,0.0545 v -1.08953 q 1.85223,-0.10899 2.77834,-0.43582 0.98059,-0.32687 1.30746,-1.30746 0.32686,-0.9806 0.32686,-2.94179 v -27.02085 q 0,-2.01566 -0.32686,-2.94178 -0.32687,-0.98058 -1.30746,-1.30745 -0.92611,-0.38134 -2.77834,-0.43581 v -1.08956 q 1.14403,0.0545 2.99625,0.10898 1.85224,0.0545 3.97684,0.0545 1.90671,0 3.75894,-0.0545 1.9067,-0.0545 3.15969,-0.10898 z"
             id="path71822"
             style="stroke-width:1.36194;fill:#ffffff" />
          <path
             d="m 714.57766,158.89812 q -0.16,1.52 -0.24,2.96 -0.04,1.4 -0.04,2.16 0,0.96 0.04,1.8 0.04,0.84 0.08,1.48 h -0.92 q -0.28,-2.8 -0.76,-4.4 -0.48,-1.64 -1.68,-2.36 -1.2,-0.72 -3.72,-0.72 h -2.16 v 22.76 q 0,1.6 0.28,2.4 0.32,0.8 1.2,1.08 0.88,0.28 2.56,0.36 v 0.8 q -1.04,-0.08 -2.64,-0.08 -1.6,-0.04 -3.24,-0.04 -1.8,0 -3.4,0.04 -1.56,0 -2.52,0.08 v -0.8 q 1.68,-0.08 2.56,-0.36 0.88,-0.28 1.16,-1.08 0.32,-0.8 0.32,-2.4 v -22.76 h -2.16 q -2.48,0 -3.72,0.72 -1.2,0.72 -1.68,2.36 -0.48,1.6 -0.76,4.4 h -0.92 q 0.08,-0.64 0.08,-1.48 0.04,-0.84 0.04,-1.8 0,-0.76 -0.08,-2.16 -0.04,-1.44 -0.2,-2.96 1.68,0.04 3.64,0.08 2,0.04 4,0.04 2,0 3.64,0 1.64,0 3.6,0 2,0 4,-0.04 2,-0.04 3.64,-0.08 z"
             id="path71824"
             style="fill:#ffffff" />
          <path
             d="m 729.59759,158.89812 q 7.16,0 10.64,3.6 3.48,3.56 3.48,10.24 0,4.36 -1.72,7.64 -1.68,3.24 -4.92,5.04 -3.24,1.8 -7.84,1.8 -0.6,0 -1.6,-0.04 -1,-0.04 -2.08,-0.04 -1.04,-0.04 -1.92,-0.04 -1.4,0 -2.76,0.04 -1.36,0 -2.2,0.08 v -0.8 q 1.36,-0.08 2.04,-0.32 0.72,-0.24 0.96,-0.96 0.24,-0.72 0.24,-2.16 v -19.84 q 0,-1.48 -0.24,-2.16 -0.24,-0.72 -0.96,-0.96 -0.68,-0.28 -2.04,-0.32 v -0.8 q 0.84,0.04 2.2,0.12 1.36,0.04 2.68,0 1.4,-0.04 3.16,-0.08 1.76,-0.04 2.88,-0.04 z m -1,0.72 q -1.84,0 -2.4,0.68 -0.56,0.68 -0.56,2.76 v 20 q 0,2.08 0.56,2.76 0.6,0.68 2.44,0.68 4.36,0 6.76,-1.56 2.4,-1.6 3.36,-4.64 0.96,-3.04 0.96,-7.4 0,-4.48 -1.08,-7.4 -1.04,-2.96 -3.48,-4.4 -2.4,-1.48 -6.56,-1.48 z"
             id="path71826"
             style="fill:#ffffff" />
        </g>
      </g>
    </g>
    <rect
       style="fill:#00b050;fill-opacity:1;stroke-width:0.264872;stroke-linecap:round"
       id="rect72324"
       width="84.458"
       height="2.8898692"
       x="115.69874"
       y="27.086077" />
    <rect
       style="fill:none;fill-opacity:1;stroke:#00b050;stroke-width:0.269542;stroke-linecap:round;stroke-opacity:1"
       id="rect72599"
       width="120.47659"
       height="49.861828"
       x="84.454712"
       y="4.6094599" />
  </g>
</svg>
